<svg width="40" height="40" viewBox="0 0 40 40" fill="none" xmlns="http://www.w3.org/2000/svg">
<circle cx="20" cy="20" r="19" fill="#18191F" stroke="white" stroke-width="2"/>
<path d="M28 12.8H12C11.4696 12.8 10.9609 13.0107 10.5858 13.3858C10.2107 13.7608 10 14.2696 10 14.8V26.8C10 27.3304 10.2107 27.8391 10.5858 28.2142C10.9609 28.5893 11.4696 28.8 12 28.8H28C28.5304 28.8 29.0391 28.5893 29.4142 28.2142C29.7893 27.8391 30 27.3304 30 26.8V14.8C30 14.2696 29.7893 13.7608 29.4142 13.3858C29.0391 13.0107 28.5304 12.8 28 12.8ZM28 17.5L20 22.834L12 17.5V15.097L20 20.43L28 15.097V17.5Z" fill="white"/>
</svg>
