<svg width="40" height="40" viewBox="0 0 40 40" fill="none" xmlns="http://www.w3.org/2000/svg">
<circle cx="20" cy="20" r="19" fill="#18191F" stroke="white" stroke-width="2"/>
<path d="M28 10.4H12C11.7348 10.4 11.4804 10.5124 11.2929 10.7124C11.1054 10.9125 11 11.1838 11 11.4667V28.5334C11 28.8163 11.1054 29.0876 11.2929 29.2876C11.4804 29.4876 11.7348 29.6 12 29.6H28C28.2652 29.6 28.5196 29.4876 28.7071 29.2876C28.8946 29.0876 29 28.8163 29 28.5334V11.4667C29 11.1838 28.8946 10.9125 28.7071 10.7124C28.5196 10.5124 28.2652 10.4 28 10.4ZM16.339 26.7595H13.667V17.5968H16.339V26.7595ZM15.003 16.3456C14.5924 16.3456 14.1987 16.1717 13.9084 15.862C13.6181 15.5523 13.455 15.1323 13.455 14.6944C13.455 14.2565 13.6181 13.8365 13.9084 13.5268C14.1987 13.2172 14.5924 13.0432 15.003 13.0432C15.4136 13.0432 15.8073 13.2172 16.0976 13.5268C16.3879 13.8365 16.551 14.2565 16.551 14.6944C16.551 15.1323 16.3879 15.5523 16.0976 15.862C15.8073 16.1717 15.4136 16.3456 15.003 16.3456ZM26.338 26.7595H23.669V22.304C23.669 21.2416 23.651 19.8752 22.281 19.8752C20.891 19.8752 20.68 21.0336 20.68 22.2294V26.7606H18.013V17.5979H20.573V18.8502H20.61C20.965 18.1302 21.837 17.3707 23.134 17.3707C25.838 17.3707 26.337 19.2672 26.337 21.7355L26.338 26.7595Z" fill="white"/>
</svg>
