<svg width="40" height="40" viewBox="0 0 40 40" fill="none" xmlns="http://www.w3.org/2000/svg">
<circle cx="20" cy="20" r="19" fill="#18191F" stroke="white" stroke-width="2"/>
<path d="M28.487 25.14L24.422 21.444C24.2299 21.2693 23.9774 21.1762 23.7178 21.1842C23.4583 21.1922 23.212 21.3008 23.031 21.487L20.638 23.948C20.062 23.838 18.904 23.477 17.712 22.288C16.52 21.095 16.159 19.934 16.052 19.362L18.511 16.968C18.6975 16.7871 18.8062 16.5408 18.8142 16.2812C18.8222 16.0216 18.7289 15.769 18.554 15.577L14.859 11.513C14.6841 11.3204 14.4409 11.2035 14.1812 11.1873C13.9215 11.171 13.6656 11.2567 13.468 11.426L11.298 13.287C11.1251 13.4605 11.022 13.6914 11.008 13.936C10.993 14.186 10.707 20.108 15.299 24.702C19.305 28.707 24.323 29 25.705 29C25.907 29 26.031 28.994 26.064 28.992C26.3086 28.9783 26.5394 28.8747 26.712 28.701L28.572 26.53C28.7421 26.333 28.8283 26.0774 28.8124 25.8177C28.7966 25.558 28.6798 25.3148 28.487 25.14Z" fill="white"/>
</svg>
